<svg width="20" height="18" viewBox="0 0 20 18" fill="none" xmlns="http://www.w3.org/2000/svg">
<path d="M3.90625 11.6275H6.25C6.68148 11.6275 7.03125 11.2778 7.03125 10.8463C7.03125 10.4148 6.68148 10.065 6.25 10.065H3.90625C3.47477 10.065 3.125 10.4148 3.125 10.8463C3.125 11.2778 3.47477 11.6275 3.90625 11.6275ZM3.90625 8.50254H6.25C6.68148 8.50254 7.03125 8.15277 7.03125 7.72129C7.03125 7.2898 6.68148 6.94004 6.25 6.94004H3.90625C3.47477 6.94004 3.125 7.2898 3.125 7.72129C3.125 8.15277 3.47477 8.50254 3.90625 8.50254ZM8.49379 10.8463C8.49379 11.2778 8.84355 11.6275 9.27504 11.6275C10.9087 11.6275 12.4445 10.9914 13.5997 9.83621L19.313 4.12238C20.2289 3.20648 20.2291 1.72387 19.313 0.807811C18.3992 -0.106017 16.9123 -0.106017 15.9984 0.807811L10.2851 6.52164C9.13 7.67684 8.49379 9.21266 8.49379 10.8463ZM17.1033 1.91269C17.4079 1.60808 17.9036 1.60808 18.2081 1.91269C18.5134 2.21793 18.5136 2.71219 18.2081 3.01754L12.4948 8.73137C11.8417 9.38449 11.0251 9.81476 10.1373 9.98402C10.3066 9.09625 10.7369 8.27965 11.3899 7.62652L17.1033 1.91269Z" fill="#444950"/>
<path d="M2.34375 17.8775C2.92016 17.8778 3.47642 17.6655 3.90594 17.2811L4.9859 16.315H12.9688C15.1227 16.315 16.875 14.5627 16.875 12.4088V10.6563C16.875 10.2248 16.5252 9.87508 16.0938 9.87508C15.6623 9.87508 15.3125 10.2248 15.3125 10.6563V12.4088C15.3125 13.7011 14.2611 14.7525 12.9688 14.7525H4.6875C4.49532 14.7525 4.30988 14.8234 4.16664 14.9515L2.86438 16.1164C2.72121 16.2444 2.53583 16.3152 2.34375 16.315C1.91297 16.315 1.5625 15.9646 1.5625 15.5338V6.15879C1.5625 4.86644 2.61391 3.81504 3.90625 3.81504H10.4589C10.8904 3.81504 11.2402 3.46527 11.2402 3.03379C11.2402 2.6023 10.8904 2.25254 10.4589 2.25254H3.90625C1.7523 2.25254 0 4.00488 0 6.15879V15.5338C0 16.8261 1.05141 17.8775 2.34375 17.8775Z" fill="#444950"/>
</svg>
