<svg width="16" height="16" viewBox="0 0 16 16" fill="none" xmlns="http://www.w3.org/2000/svg">
<path d="M12.5 1.8125H11.5625V1.25C11.5625 0.9395 11.3105 0.6875 11 0.6875C10.6895 0.6875 10.4375 0.9395 10.4375 1.25V1.8125H5.5625V1.25C5.5625 0.9395 5.3105 0.6875 5 0.6875C4.6895 0.6875 4.4375 0.9395 4.4375 1.25V1.8125H3.5C1.6865 1.8125 0.6875 2.8115 0.6875 4.625V12.5C0.6875 14.3135 1.6865 15.3125 3.5 15.3125H12.5C14.3135 15.3125 15.3125 14.3135 15.3125 12.5V4.625C15.3125 2.8115 14.3135 1.8125 12.5 1.8125ZM3.5 2.9375H4.4375V3.5C4.4375 3.8105 4.6895 4.0625 5 4.0625C5.3105 4.0625 5.5625 3.8105 5.5625 3.5V2.9375H10.4375V3.5C10.4375 3.8105 10.6895 4.0625 11 4.0625C11.3105 4.0625 11.5625 3.8105 11.5625 3.5V2.9375H12.5C13.6828 2.9375 14.1875 3.44225 14.1875 4.625V5.1875H1.8125V4.625C1.8125 3.44225 2.31725 2.9375 3.5 2.9375ZM12.5 14.1875H3.5C2.31725 14.1875 1.8125 13.6828 1.8125 12.5V6.3125H14.1875V12.5C14.1875 13.6828 13.6828 14.1875 12.5 14.1875ZM5.76501 8.75C5.76501 9.164 5.42976 9.5 5.01501 9.5C4.60101 9.5 4.26117 9.164 4.26117 8.75C4.26117 8.336 4.59351 8 5.00751 8H5.01501C5.42901 8 5.76501 8.336 5.76501 8.75ZM8.76501 8.75C8.76501 9.164 8.42976 9.5 8.01501 9.5C7.60101 9.5 7.26117 9.164 7.26117 8.75C7.26117 8.336 7.59351 8 8.00751 8H8.01501C8.42901 8 8.76501 8.336 8.76501 8.75ZM11.765 8.75C11.765 9.164 11.4298 9.5 11.015 9.5C10.601 9.5 10.2612 9.164 10.2612 8.75C10.2612 8.336 10.5935 8 11.0075 8H11.015C11.429 8 11.765 8.336 11.765 8.75ZM5.76501 11.75C5.76501 12.164 5.42976 12.5 5.01501 12.5C4.60101 12.5 4.26117 12.164 4.26117 11.75C4.26117 11.336 4.59351 11 5.00751 11H5.01501C5.42901 11 5.76501 11.336 5.76501 11.75ZM8.76501 11.75C8.76501 12.164 8.42976 12.5 8.01501 12.5C7.60101 12.5 7.26117 12.164 7.26117 11.75C7.26117 11.336 7.59351 11 8.00751 11H8.01501C8.42901 11 8.76501 11.336 8.76501 11.75ZM11.765 11.75C11.765 12.164 11.4298 12.5 11.015 12.5C10.601 12.5 10.2612 12.164 10.2612 11.75C10.2612 11.336 10.5935 11 11.0075 11H11.015C11.429 11 11.765 11.336 11.765 11.75Z" fill="#1141CB"/>
</svg>
