<svg width="18" height="12" viewBox="0 0 18 12" fill="none" xmlns="http://www.w3.org/2000/svg">
<path d="M6.75781 9.75C6.75781 10.5784 6.08624 11.25 5.25781 11.25C4.42938 11.25 3.75781 10.5784 3.75781 9.75C3.75781 8.92155 4.42938 8.25 5.25781 8.25C6.08624 8.25 6.75781 8.92155 6.75781 9.75Z" stroke="#1141CB" stroke-width="1.125"/>
<path d="M14.2578 9.75C14.2578 10.5784 13.5863 11.25 12.7578 11.25C11.9294 11.25 11.2578 10.5784 11.2578 9.75C11.2578 8.92155 11.9294 8.25 12.7578 8.25C13.5863 8.25 14.2578 8.92155 14.2578 9.75Z" stroke="#1141CB" stroke-width="1.125"/>
<path d="M1.50586 4.5H13.5058M1.50586 4.5C1.50586 5.085 1.49086 6.78 1.50886 8.445C1.53583 8.985 1.62577 9.435 3.75714 9.75M1.50586 4.5C1.66774 3.195 2.3722 1.65 2.73192 1.065M6.75586 4.5V0.75M11.2484 9.75H6.75186M1.51785 0.75H9.17999C9.17999 0.75 9.58469 0.75 9.94439 0.786C10.6189 0.849 11.1855 1.155 11.752 1.92C12.352 2.73 12.8132 3.756 13.4248 4.305C14.441 5.2173 16.3745 4.935 16.4824 6.87C16.5094 7.86 16.5094 8.94 16.4644 9.12C16.3922 9.65002 15.9835 9.73658 15.4752 9.75C15.034 9.7617 14.5022 9.72908 14.2432 9.75" stroke="#1141CB" stroke-width="1.125" stroke-linecap="round"/>
</svg>
