<svg width="18" height="16" viewBox="0 0 18 16" fill="none" xmlns="http://www.w3.org/2000/svg">
<path d="M1.5 11V13.9115C1.5 14.1955 1.66113 14.4558 1.93141 14.5433C2.23946 14.643 2.68673 14.75 3.1875 14.75C3.68827 14.75 4.13554 14.643 4.44359 14.5433C4.71387 14.4558 4.875 14.1955 4.875 13.9115V12.5" stroke="#1141CB" stroke-width="1.125" stroke-linecap="round" stroke-linejoin="round"/>
<path d="M13.125 12.5V13.9115C13.125 14.1955 13.2861 14.4558 13.5564 14.5433C13.8644 14.643 14.3117 14.75 14.8125 14.75C15.3133 14.75 15.7606 14.643 16.0686 14.5433C16.3389 14.4558 16.5 14.1955 16.5 13.9115V11" stroke="#1141CB" stroke-width="1.125" stroke-linecap="round" stroke-linejoin="round"/>
<path d="M1.5 11.375V8.81443C1.5 8.288 1.68458 7.77823 2.0216 7.3739L3.375 5.75H14.625L15.9784 7.3739C16.3154 7.77823 16.5 8.288 16.5 8.81443V11.375C16.5 11.375 14.2485 12.5 13.125 12.5H4.875C3.75154 12.5 1.5 11.375 1.5 11.375Z" stroke="#1141CB" stroke-width="1.125" stroke-linecap="round" stroke-linejoin="round"/>
<path d="M6 12.5L6.57906 10.7628C6.68114 10.4565 6.96775 10.25 7.29057 10.25H10.7094C11.0323 10.25 11.3188 10.4565 11.4209 10.7628L12 12.5" stroke="#1141CB" stroke-width="1.125" stroke-linecap="round" stroke-linejoin="round"/>
<path d="M3.375 5.75L4.53311 2.27565C4.73728 1.66314 5.3105 1.25 5.95614 1.25H12.0439C12.6895 1.25 13.2627 1.66314 13.4668 2.27565L14.625 5.75" stroke="#1141CB" stroke-width="1.125" stroke-linecap="round" stroke-linejoin="round"/>
</svg>
