<svg width="14" height="14" viewBox="0 0 14 14" fill="none" xmlns="http://www.w3.org/2000/svg">
<path d="M13 2.5H10.6273C10.0267 2.5 10.0013 2.424 9.83667 1.93066L9.702 1.526C9.49733 0.912668 8.926 0.5 8.27934 0.5H5.72066C5.074 0.5 4.502 0.912001 4.298 1.526L4.16334 1.93066C3.99867 2.42466 3.97333 2.5 3.37267 2.5H1C0.724 2.5 0.5 2.724 0.5 3C0.5 3.276 0.724 3.5 1 3.5H1.86533L2.37667 11.166C2.47534 12.6493 3.38467 13.5 4.87134 13.5H9.12933C10.6153 13.5 11.5247 12.6493 11.624 11.166L12.1353 3.5H13C13.276 3.5 13.5 3.276 13.5 3C13.5 2.724 13.276 2.5 13 2.5ZM5.24666 1.842C5.31533 1.63733 5.50533 1.5 5.72066 1.5H8.27934C8.49467 1.5 8.68534 1.63733 8.75334 1.842L8.888 2.24666C8.91733 2.334 8.94667 2.41867 8.97867 2.5H5.02C5.052 2.418 5.08201 2.33333 5.11134 2.24666L5.24666 1.842ZM10.6253 11.0993C10.562 12.0547 10.086 12.5 9.12866 12.5H4.87067C3.91333 12.5 3.438 12.0553 3.374 11.0993L2.86734 3.5H3.372C3.45533 3.5 3.52467 3.49134 3.59933 3.486C3.622 3.48934 3.64267 3.5 3.666 3.5H10.3327C10.3567 3.5 10.3767 3.48934 10.3993 3.486C10.474 3.49134 10.5433 3.5 10.6267 3.5H11.1313L10.6253 11.0993ZM8.83333 6.33333V9.66667C8.83333 9.94267 8.60933 10.1667 8.33333 10.1667C8.05733 10.1667 7.83333 9.94267 7.83333 9.66667V6.33333C7.83333 6.05733 8.05733 5.83333 8.33333 5.83333C8.60933 5.83333 8.83333 6.05733 8.83333 6.33333ZM6.16667 6.33333V9.66667C6.16667 9.94267 5.94267 10.1667 5.66667 10.1667C5.39067 10.1667 5.16667 9.94267 5.16667 9.66667V6.33333C5.16667 6.05733 5.39067 5.83333 5.66667 5.83333C5.94267 5.83333 6.16667 6.05733 6.16667 6.33333Z" fill="#121212"/>
</svg>
