<svg width="14" height="14" viewBox="0 0 14 14" fill="none" xmlns="http://www.w3.org/2000/svg">
<path d="M12.1667 9V11C12.1667 12.612 11.2787 13.5 9.66667 13.5H3C1.388 13.5 0.5 12.612 0.5 11V4.33333C0.5 2.72133 1.388 1.83333 3 1.83333H5C5.276 1.83333 5.5 2.05733 5.5 2.33333C5.5 2.60933 5.276 2.83333 5 2.83333H3C1.94867 2.83333 1.5 3.282 1.5 4.33333V11C1.5 12.0513 1.94867 12.5 3 12.5H9.66667C10.718 12.5 11.1667 12.0513 11.1667 11V9C11.1667 8.724 11.3907 8.5 11.6667 8.5C11.9427 8.5 12.1667 8.724 12.1667 9ZM13.5 3.03733C13.4993 3.42867 13.3467 3.796 13.0693 4.072L7.09399 10.0207C6.99999 10.114 6.87333 10.1667 6.74133 10.1667H4.33333C4.05733 10.1667 3.83333 9.94267 3.83333 9.66667V7.25934C3.83333 7.12734 3.88533 6.99999 3.97933 6.90666L9.92802 0.930664C10.2034 0.653331 10.5713 0.500667 10.9626 0.5C10.9633 0.5 10.964 0.5 10.9647 0.5C11.3553 0.5 11.7227 0.652004 11.9993 0.92867L13.072 2.00134C13.348 2.27801 13.5007 2.646 13.5 3.03733ZM10.7447 4.97534L9.02466 3.25533L4.83333 7.466V9.16734H6.53467L10.7447 4.97534ZM12.5 3.03599C12.5 2.91199 12.452 2.79534 12.3647 2.70801L11.292 1.63534C11.2047 1.548 11.088 1.5 10.9647 1.5H10.964C10.84 1.5 10.724 1.54867 10.6367 1.63601L9.73067 2.546L11.454 4.26933L12.364 3.36334C12.4513 3.27668 12.4993 3.15999 12.5 3.03599Z" fill="#121212"/>
</svg>
