<svg width="13" height="14" viewBox="0 0 13 14" fill="none" xmlns="http://www.w3.org/2000/svg">
<path d="M11.5375 4.60575H8.51503C8.30378 4.60575 8.13586 4.43783 8.13586 4.22658C8.13586 4.01533 8.30378 3.84741 8.51503 3.84741H11.5375C11.7488 3.84741 11.9167 4.01533 11.9167 4.22658C11.9167 4.43783 11.7488 4.60575 11.5375 4.60575Z" fill="#121212"/>
<path d="M3.47717 4.60575H1.46217C1.25092 4.60575 1.08301 4.43783 1.08301 4.22658C1.08301 4.01533 1.25092 3.84741 1.46217 3.84741H3.47717C3.68842 3.84741 3.85634 4.01533 3.85634 4.22658C3.85634 4.43783 3.68301 4.60575 3.47717 4.60575Z" fill="#121212"/>
<path d="M5.49212 6.36632C6.67378 6.36632 7.63171 5.4084 7.63171 4.22674C7.63171 3.04508 6.67378 2.08716 5.49212 2.08716C4.31046 2.08716 3.35254 3.04508 3.35254 4.22674C3.35254 5.4084 4.31046 6.36632 5.49212 6.36632Z" fill="#121212"/>
<path d="M11.5375 10.147H9.52248C9.31123 10.147 9.14331 9.97909 9.14331 9.76784C9.14331 9.55659 9.31123 9.38867 9.52248 9.38867H11.5375C11.7487 9.38867 11.9166 9.55659 11.9166 9.76784C11.9166 9.97909 11.7487 10.147 11.5375 10.147Z" fill="#121212"/>
<path d="M4.48467 10.147H1.46217C1.25092 10.147 1.08301 9.97909 1.08301 9.76784C1.08301 9.55659 1.25092 9.38867 1.46217 9.38867H4.48467C4.69592 9.38867 4.86384 9.55659 4.86384 9.76784C4.86384 9.97909 4.69051 10.147 4.48467 10.147Z" fill="#121212"/>
<path d="M7.50775 11.913C8.68941 11.913 9.64733 10.955 9.64733 9.77337C9.64733 8.59171 8.68941 7.63379 7.50775 7.63379C6.32609 7.63379 5.36816 8.59171 5.36816 9.77337C5.36816 10.955 6.32609 11.913 7.50775 11.913Z" fill="#121212"/>
</svg>
