<svg width="19" height="18" viewBox="0 0 19 18" fill="none" xmlns="http://www.w3.org/2000/svg">
<path d="M7.6694 2.32325L4.58735 4.42027C3.60642 5.08769 3.11596 5.4214 2.84973 5.92911C2.5835 6.43681 2.5835 7.03842 2.5835 8.2416V13.4382C2.5835 14.8816 2.5835 15.6032 3.02284 16.0516C3.46217 16.5 4.16928 16.5 5.5835 16.5H13.0835C14.4977 16.5 15.2048 16.5 15.6441 16.0516C16.0835 15.6032 16.0835 14.8816 16.0835 13.4382V8.2416C16.0835 7.03842 16.0835 6.43681 15.8172 5.92911C15.551 5.4214 15.0606 5.08769 14.0796 4.42027L10.9976 2.32325C10.191 1.77442 9.7877 1.5 9.3335 1.5C8.8793 1.5 8.47602 1.77442 7.6694 2.32325Z" stroke="#1141CB" stroke-width="1.125" stroke-linecap="round" stroke-linejoin="round"/>
<path d="M5.5835 16.5V11.25C5.5835 9.8358 5.5835 9.1287 6.02284 8.68935C6.46217 8.25 7.16928 8.25 8.5835 8.25H10.0835C11.4977 8.25 12.2048 8.25 12.6441 8.68935C13.0835 9.1287 13.0835 9.8358 13.0835 11.25V16.5" stroke="#1141CB" stroke-width="1.125" stroke-linecap="round" stroke-linejoin="round"/>
<path d="M5.5835 10.5H13.0835" stroke="#1141CB" stroke-width="1.125" stroke-linecap="round" stroke-linejoin="round"/>
<path d="M5.5835 13.5H13.0835" stroke="#1141CB" stroke-width="1.125" stroke-linecap="round" stroke-linejoin="round"/>
<path d="M9.34025 5.25H9.3335" stroke="#1141CB" stroke-width="1.5" stroke-linecap="round" stroke-linejoin="round"/>
</svg>
