<svg width="20" height="16" viewBox="0 0 20 16" fill="none" xmlns="http://www.w3.org/2000/svg">
<path d="M17.8572 0.142822H2.14293C1.76405 0.142822 1.40068 0.293332 1.13277 0.561241C0.864865 0.82915 0.714355 1.19251 0.714355 1.57139V14.4285C0.714355 14.8074 0.864865 15.1708 1.13277 15.4387C1.40068 15.7066 1.76405 15.8571 2.14293 15.8571H17.8572C18.2361 15.8571 18.5995 15.7066 18.8674 15.4387C19.1353 15.1708 19.2858 14.8074 19.2858 14.4285V1.57139C19.2858 1.19251 19.1353 0.82915 18.8674 0.561241C18.5995 0.293332 18.2361 0.142822 17.8572 0.142822ZM12.5001 4.42854C12.712 4.42854 12.9191 4.49137 13.0953 4.6091C13.2715 4.72683 13.4088 4.89417 13.4899 5.08995C13.571 5.28573 13.5923 5.50115 13.5509 5.70899C13.5096 5.91683 13.4075 6.10774 13.2577 6.25758C13.1078 6.40742 12.9169 6.50947 12.7091 6.55081C12.5013 6.59215 12.2858 6.57093 12.0901 6.48984C11.8943 6.40874 11.7269 6.27141 11.6092 6.09522C11.4915 5.91902 11.4286 5.71187 11.4286 5.49997C11.4286 5.2158 11.5415 4.94328 11.7425 4.74235C11.9434 4.54142 12.2159 4.42854 12.5001 4.42854ZM2.14293 14.4285V11.9285L6.78578 7.28568L13.9286 14.4285H2.14293ZM17.8572 14.4285H15.9492L12.7349 11.2143L14.5206 9.42854L17.8572 12.766V14.4285Z" fill="#6080DC"/>
</svg>
