<svg width="17" height="16" viewBox="0 0 17 16" fill="none" xmlns="http://www.w3.org/2000/svg">
<path d="M10.3338 5.99992C10.3338 6.92039 9.58762 7.66659 8.66715 7.66659C7.74669 7.66659 7.00049 6.92039 7.00049 5.99992C7.00049 5.07945 7.74669 4.33325 8.66715 4.33325C9.58762 4.33325 10.3338 5.07945 10.3338 5.99992Z" stroke="#434343" stroke-width="1.28571"/>
<path d="M13.3338 6.13325C13.3338 9.86659 8.66715 11.9999 8.66715 11.9999C8.66715 11.9999 4.00049 9.86659 4.00049 6.13325C4.00049 3.48229 6.08983 1.33325 8.66715 1.33325C11.2445 1.33325 13.3338 3.48229 13.3338 6.13325Z" stroke="#434343" stroke-width="1.28571"/>
<path d="M12.6665 12.6667C12.6665 13.7713 10.8756 14.6667 8.6665 14.6667C6.45736 14.6667 4.6665 13.7713 4.6665 12.6667" stroke="#434343" stroke-width="1.28571"/>
</svg>
