<svg width="16" height="18" viewBox="0 0 16 18" fill="none" xmlns="http://www.w3.org/2000/svg">
<path fill-rule="evenodd" clip-rule="evenodd" d="M7.07867 1.12747C7.2845 1.53911 7.11767 2.03968 6.706 2.2455L2.62733 4.28484C2.345 4.426 2.16667 4.71455 2.16667 5.0302V12.9701C2.16667 13.2857 2.345 13.5743 2.62733 13.7155L6.706 15.7548C7.11767 15.9606 7.2845 16.4612 7.07867 16.8728C6.87283 17.2845 6.37233 17.4513 5.96066 17.2455L1.88197 15.2061C1.03501 14.7827 0.5 13.917 0.5 12.9701V5.0302C0.5 4.08327 1.03501 3.21761 1.88197 2.79414L5.96066 0.754785C6.37233 0.54896 6.87283 0.715819 7.07867 1.12747Z" fill="#121212"/>
<path fill-rule="evenodd" clip-rule="evenodd" d="M12.2644 6.14683C12.5758 6.01785 12.9342 6.08914 13.1726 6.32747L15.2559 8.41079C15.5813 8.73621 15.5813 9.26387 15.2559 9.58929L13.1726 11.6726C12.9342 11.911 12.5758 11.9823 12.2644 11.8533C11.953 11.7243 11.75 11.4205 11.75 11.0834V9.83337H6.33333C5.8731 9.83337 5.5 9.46029 5.5 9.00004C5.5 8.53979 5.8731 8.16671 6.33333 8.16671H11.75V6.91673C11.75 6.57968 11.953 6.27582 12.2644 6.14683Z" fill="#121212"/>
</svg>
