<svg width="20" height="20" viewBox="0 0 20 20" fill="none" xmlns="http://www.w3.org/2000/svg">
<path d="M9.9955 10H10.0045M13.991 10H14M6 10H6.00897" stroke="#121212" stroke-width="2" stroke-linecap="round" stroke-linejoin="round"/>
<path d="M10 19C14.9705 19 19 14.9705 19 10C19 5.02944 14.9705 1 10 1C5.02944 1 1 5.02944 1 10C1 11.4183 1.36192 12.6471 1.95775 13.8021C2.19141 14.2551 2.2664 14.7786 2.11994 15.2669L1.48028 17.3991C1.27432 18.0856 1.91442 18.7257 2.60094 18.5198L4.73315 17.88C5.22132 17.7336 5.74486 17.8086 6.19782 18.0422C7.35291 18.6381 8.58169 19 10 19Z" stroke="#121212" stroke-width="1.5" stroke-linecap="round" stroke-linejoin="round"/>
</svg>
