<svg width="18" height="20" viewBox="0 0 18 20" fill="none" xmlns="http://www.w3.org/2000/svg">
<path d="M15.3516 16.1195H2.64844C1.51172 16.1195 0.585938 15.1937 0.585938 14.057C0.585938 13.6844 0.686719 13.3164 0.878906 12.9953L2.0625 11.0219V7.35859C2.0625 6.47734 2.26172 5.61719 2.65547 4.79922C3.02344 4.03281 3.54609 3.34141 4.20703 2.74141C5.51953 1.55078 7.25625 0.859375 8.97422 0.847656H9.02813C10.7484 0.857031 12.4922 1.54609 13.8094 2.74141C14.4703 3.34141 14.9953 4.03281 15.3656 4.79922C15.7617 5.61719 15.9609 6.47734 15.9609 7.35859V11.0242L17.1281 13.0023C17.3156 13.3187 17.4141 13.682 17.4141 14.05V14.0547C17.4141 15.1937 16.4883 16.1195 15.3516 16.1195ZM9.00703 2.25625H8.99531C6.05156 2.27031 3.46875 4.65625 3.46875 7.35859V11.4109L2.08594 13.7172C2.025 13.8203 1.99219 13.9352 1.99219 14.0547C1.99219 14.418 2.2875 14.7109 2.64844 14.7109H15.3516C15.7148 14.7109 16.0078 14.4156 16.0078 14.0547V14.05C16.0078 13.9328 15.9773 13.818 15.9164 13.7172L14.5547 11.4086V7.35859C14.5547 4.65625 11.9672 2.27031 9.01875 2.25391L9.00703 2.25625Z" fill="black"/>
<path d="M9.70273 2.28906L8.97383 2.25391H8.99961V1.5625H8.30352L8.99961 1.55078V0.859375H9.70273V2.28906ZM8.95977 19.1523C7.81836 19.1523 6.72852 18.4961 6.1168 17.4367L7.3332 16.7336C7.68945 17.35 8.32695 17.7461 8.95742 17.7461C9.70977 17.7461 10.3402 17.3828 10.6402 16.7734L11.9012 17.3969C11.634 17.9383 11.2168 18.3859 10.6941 18.693C10.1832 18.993 9.5832 19.1523 8.95977 19.1523ZM6.70273 6.28516L5.46289 5.61953C5.77227 5.04297 6.24805 4.55078 6.83633 4.19687C7.42695 3.84297 8.09023 3.65078 8.75586 3.64609H8.8168L8.74648 5.05H8.80273H8.76992C7.92617 5.05937 7.09414 5.55391 6.70273 6.28516Z" fill="black"/>
</svg>
