<svg width="14" height="14" viewBox="0 0 14 14" fill="none" xmlns="http://www.w3.org/2000/svg">
<path d="M11.7637 11.5896H2.23633C1.38379 11.5896 0.689453 10.8953 0.689453 10.0428C0.689453 9.76328 0.765039 9.4873 0.90918 9.24648L1.79688 7.76641V5.01895C1.79688 4.35801 1.94629 3.71289 2.2416 3.09941C2.51758 2.52461 2.90957 2.00605 3.40527 1.55605C4.38965 0.663086 5.69219 0.144531 6.98066 0.135742H7.02109C8.31133 0.142773 9.61914 0.65957 10.607 1.55605C11.1027 2.00605 11.4965 2.52461 11.7742 3.09941C12.0713 3.71289 12.2207 4.35801 12.2207 5.01895V7.76816L13.0961 9.25176C13.2367 9.48906 13.3105 9.76152 13.3105 10.0375V10.041C13.3105 10.8953 12.6162 11.5896 11.7637 11.5896ZM7.00527 1.19219H6.99648C4.78867 1.20273 2.85156 2.99219 2.85156 5.01895V8.0582L1.81445 9.78789C1.76875 9.86523 1.74414 9.95137 1.74414 10.041C1.74414 10.3135 1.96563 10.5332 2.23633 10.5332H11.7637C12.0361 10.5332 12.2559 10.3117 12.2559 10.041V10.0375C12.2559 9.94961 12.233 9.86348 12.1873 9.78789L11.166 8.05645V5.01895C11.166 2.99219 9.22539 1.20273 7.01406 1.19043L7.00527 1.19219Z" fill="#1141CB"/>
<path d="M7.52754 1.2168L6.98086 1.19043H7.0002V0.671875H6.47812L7.0002 0.663086V0.144531H7.52754V1.2168ZM6.97031 13.8643C6.11426 13.8643 5.29687 13.3721 4.83809 12.5775L5.75039 12.0502C6.01758 12.5125 6.4957 12.8096 6.96855 12.8096C7.53281 12.8096 8.00566 12.5371 8.23066 12.0801L9.17637 12.5477C8.97598 12.9537 8.66309 13.2895 8.27109 13.5197C7.88789 13.7447 7.43789 13.8643 6.97031 13.8643ZM5.27754 4.21387L4.34766 3.71465C4.57969 3.28223 4.93652 2.91309 5.37773 2.64766C5.8207 2.38223 6.31816 2.23809 6.81738 2.23457H6.86309L6.81035 3.2875H6.85254H6.82793C6.19512 3.29453 5.57109 3.66543 5.27754 4.21387Z" fill="#1141CB"/>
</svg>
