<svg width="18" height="18" viewBox="0 0 18 18" fill="none" xmlns="http://www.w3.org/2000/svg">
<path d="M2.33594 4.66504C4.11224 2.00914 7.41705 0.585633 10.6855 1.31738L11.002 1.39453C15.0915 2.48668 17.5757 6.57271 16.7002 10.6465L16.6045 11.041C15.5101 15.1107 11.403 17.5723 7.30957 16.6973L6.91406 16.6025C3.87671 15.7916 1.7258 13.3295 1.17773 10.4482L1.12988 10.168C1.10269 9.98879 1.20647 9.81997 1.37012 9.75977L1.44336 9.74121C1.62241 9.71386 1.79113 9.81795 1.85156 9.98145L1.87109 10.0547C2.27275 12.6847 4.14584 14.9722 6.84375 15.8018L7.10742 15.8779C10.8133 16.8673 14.6142 14.7814 15.7764 11.1973L15.8809 10.8467C16.87 7.16821 14.7716 3.38502 11.1621 2.22363L10.8076 2.11914C7.94571 1.3552 5.0058 2.44778 3.28223 4.63867L3.10547 4.8623L3.27441 5.09277L4.05273 6.15137C4.1154 6.23675 4.13761 6.34331 4.11816 6.44434L4.08496 6.54297C4.02112 6.6691 3.89137 6.74805 3.75 6.74805H1.875C1.78255 6.74802 1.6947 6.71416 1.62695 6.6543L1.56641 6.58691C1.51391 6.51089 1.49224 6.41881 1.50293 6.3291L1.52441 6.24023C1.68428 5.81835 1.87851 5.41659 2.10254 5.03711L2.33594 4.66504Z" fill="#1141CB" stroke="#1141CB" stroke-width="0.75"/>
<path d="M9 5.62402C9.20712 5.62402 9.375 5.79191 9.375 5.99902V8.84375L9.48438 8.95312L10.7646 10.2324V10.2334C10.8927 10.3615 10.9093 10.5596 10.8135 10.7051L10.7656 10.7637L10.7646 10.7646C10.6366 10.8923 10.4393 10.9083 10.2939 10.8125L10.2354 10.7646L8.73438 9.26367C8.66435 9.1934 8.62501 9.09827 8.625 8.99902V5.99902C8.625 5.79191 8.79288 5.62402 9 5.62402Z" fill="#1141CB" stroke="#1141CB" stroke-width="0.75"/>
</svg>
