<svg width="17" height="16" viewBox="0 0 17 16" fill="none" xmlns="http://www.w3.org/2000/svg">
<path d="M10.1536 2.33894C13.3038 3.18007 15.169 6.39751 14.3293 9.52045C13.4893 12.6443 10.2579 14.5023 7.1069 13.6609C4.7692 13.0367 3.13731 11.1027 2.79612 8.86865C2.7418 8.51299 2.40941 8.26865 2.05373 8.32299C1.69803 8.37732 1.45372 8.70972 1.50805 9.06539C1.92511 11.7962 3.91855 14.1583 6.77075 14.9199C10.6096 15.9449 14.5592 13.6833 15.5876 9.85879C16.6162 6.03351 14.3295 2.10529 10.4898 1.08003C6.88489 0.117482 3.18375 2.05259 1.89325 5.45872C1.81988 5.65237 1.84294 5.86936 1.95537 6.04326C2.0678 6.21716 2.25621 6.32727 2.4629 6.33985L4.09827 6.43941C4.45742 6.46127 4.7663 6.18785 4.78816 5.82869C4.79635 5.69417 4.78816 5.54742 4.69946 5.45872L4.02799 4.78725C3.91247 4.67173 3.89694 4.48879 3.99867 4.36097C5.41319 2.58387 7.80615 1.71213 10.1536 2.33894Z" fill="#434343"/>
<path fill-rule="evenodd" clip-rule="evenodd" d="M8.66715 4.66675C9.03535 4.66675 9.33382 4.96523 9.33382 5.33341V7.72395L10.4719 8.86201C10.7322 9.12235 10.7322 9.54448 10.4719 9.80481C10.2116 10.0651 9.78942 10.0651 9.52909 9.80481L8.19575 8.47148C8.07075 8.34648 8.00049 8.17688 8.00049 8.00008V5.33341C8.00049 4.96523 8.29895 4.66675 8.66715 4.66675Z" fill="#434343"/>
</svg>
