<svg width="19" height="18" viewBox="0 0 19 18" fill="none" xmlns="http://www.w3.org/2000/svg">
<path d="M13.4198 15.75C14.248 15.75 14.9193 15.0784 14.9193 14.25C14.9193 13.4216 14.248 12.75 13.4198 12.75C12.5917 12.75 11.9204 13.4216 11.9204 14.25C11.9204 15.0784 12.5917 15.75 13.4198 15.75Z" stroke="#1141CB" stroke-width="1.125"/>
<path d="M5.92372 15.75C6.75183 15.75 7.42314 15.0784 7.42314 14.25C7.42314 13.4216 6.75183 12.75 5.92372 12.75C5.09563 12.75 4.42432 13.4216 4.42432 14.25C4.42432 15.0784 5.09563 15.75 5.92372 15.75Z" stroke="#1141CB" stroke-width="1.125"/>
<path d="M9.67138 9L5.17315 2.25M5.17315 2.25L6.67256 9.75M5.17315 2.25H3.5469C3.40512 2.25 3.28553 2.37073 3.26797 2.5316L3.01794 4.82143C3.48368 4.82143 3.86124 5.25316 3.86124 5.78572C3.86124 6.31828 3.48368 6.75 3.01794 6.75C2.65076 6.75 2.29009 6.48167 2.17432 6.10715M14.9194 14.25C16.931 14.25 17.1685 13.554 17.1685 11.6344C17.1685 10.7156 17.1685 10.2562 16.9885 9.86835C16.8005 9.46335 16.4618 9.21105 15.7495 8.69482C15.042 8.18212 14.539 7.60575 14.0596 6.81179C13.3761 5.67947 13.0343 5.11331 12.5217 4.80666C12.0091 4.5 11.4046 4.5 10.1954 4.5H9.67138V9.75" stroke="#1141CB" stroke-width="1.125" stroke-linecap="round" stroke-linejoin="round"/>
<path d="M4.42139 14.247C4.42139 14.247 3.55178 14.2547 3.28188 14.22C3.05697 14.13 2.78367 13.9189 2.60715 13.8015C2.06736 13.4426 2.17532 13.59 2.17532 13.266C2.17532 12.7595 2.17226 10.5047 2.17226 10.5047V9.78475C2.17226 9.73975 2.126 9.74935 2.47214 9.75475H16.7766M7.42031 14.2515H11.9185" stroke="#1141CB" stroke-width="1.125" stroke-linecap="round"/>
</svg>
