<svg width="40" height="31" viewBox="0 0 40 31" fill="none" xmlns="http://www.w3.org/2000/svg">
<path d="M31.2546 30.0525H22.6727V21.3807H25.5088C26.228 21.3807 26.653 20.5634 26.228 19.9749L20.7111 12.3411C20.3596 11.8507 19.6322 11.8507 19.2808 12.3411L13.7638 19.9749C13.3388 20.5634 13.7556 21.3807 14.483 21.3807H17.3192V30.0525H7.7074C3.41643 29.8155 0 25.8024 0 21.4543C0 18.4547 1.62648 15.8392 4.0376 14.4252C3.81692 13.8286 3.70249 13.1911 3.70249 12.5209C3.70249 9.45589 6.17899 6.97938 9.24397 6.97938C9.90601 6.97938 10.5435 7.09381 11.1402 7.31449C12.9138 3.55478 16.7389 0.94751 21.1851 0.94751C26.9391 0.955683 31.6796 5.36108 32.219 10.9761C36.6408 11.7362 40 15.831 40 20.4653C40 25.4183 36.1422 29.7093 31.2546 30.0525Z" fill="#1141CB"/>
</svg>
