<svg width="16" height="16" viewBox="0 0 16 16" fill="none" xmlns="http://www.w3.org/2000/svg">
<path d="M8.75 7.25C8.75 5.59314 7.40683 4.25 5.75 4.25C4.09314 4.25 2.75 5.59314 2.75 7.25C2.75 8.90683 4.09314 10.25 5.75 10.25C7.40683 10.25 8.75 8.90683 8.75 7.25Z" stroke="#1141CB" stroke-width="1.125" stroke-linecap="square"/>
<path d="M10.25 14.75C10.25 12.2647 8.23527 10.25 5.75 10.25C3.26472 10.25 1.25 12.2647 1.25 14.75" stroke="#1141CB" stroke-width="1.125" stroke-linecap="square"/>
<path d="M7.25 4.25C7.25 2.59314 8.59317 1.25 10.25 1.25C11.9068 1.25 13.25 2.59314 13.25 4.25C13.25 5.90686 11.9068 7.25 10.25 7.25M10.25 7.25C12.7353 7.25 14.75 9.26473 14.75 11.75M10.25 7.25C9.85213 7.25 9.4724 7.17252 9.125 7.0319" stroke="#1141CB" stroke-width="1.125" stroke-linecap="square"/>
</svg>
