<svg width="19" height="20" viewBox="0 0 19 20" fill="none" xmlns="http://www.w3.org/2000/svg">
<path d="M9.6668 9.69916C11.6414 9.69916 13.2421 8.09847 13.2421 6.12391C13.2421 4.14935 11.6414 2.54866 9.6668 2.54866C7.69225 2.54866 6.09155 4.14935 6.09155 6.12391C6.09155 8.09847 7.69225 9.69916 9.6668 9.69916Z" fill="#1141CB"/>
<path d="M13.8739 3.90413C13.8249 3.90413 13.7794 3.9158 13.7316 3.91871C14.1004 4.59528 14.2932 5.35373 14.2922 6.1243C14.2925 6.73151 14.1729 7.33281 13.9403 7.89369C13.7076 8.45457 13.3665 8.96399 12.9365 9.39271C13.2369 9.50286 13.554 9.56086 13.8739 9.56421C14.6245 9.56421 15.3443 9.26605 15.8751 8.73531C16.4058 8.20458 16.704 7.48474 16.704 6.73417C16.704 5.9836 16.4058 5.26376 15.8751 4.73303C15.3443 4.20229 14.6245 3.90413 13.8739 3.90413Z" fill="#1141CB"/>
<path d="M9.6668 9.69916C11.6414 9.69916 13.2421 8.09847 13.2421 6.12391C13.2421 4.14935 11.6414 2.54866 9.6668 2.54866C7.69225 2.54866 6.09155 4.14935 6.09155 6.12391C6.09155 8.09847 7.69225 9.69916 9.6668 9.69916Z" fill="#1141CB"/>
<path d="M3.61412 13.7C3.61412 12.517 4.03121 11.4163 4.73879 10.5384C4.19877 10.4374 3.6865 10.2224 3.23612 9.9078C2.71409 10.1718 2.27548 10.5754 1.96902 11.0737C1.66256 11.572 1.50025 12.1455 1.50012 12.7305V13.1832C1.50012 13.5204 1.73696 13.8115 2.06829 13.875C2.53612 13.9649 3.05354 14.0442 3.61412 14.1014V13.7ZM5.04154 6.12371C5.04154 5.32571 5.24454 4.57438 5.60212 3.91813C5.55429 3.9158 5.50879 3.90413 5.45979 3.90413C4.70929 3.90413 3.98953 4.20226 3.45885 4.73294C2.92817 5.26362 2.63004 5.98338 2.63004 6.73388C2.63004 7.48438 2.92817 8.20413 3.45885 8.73481C3.98953 9.2655 4.70929 9.56363 5.45979 9.56363C5.78996 9.56363 6.10262 9.49596 6.39721 9.39213C5.96712 8.96347 5.62596 8.45406 5.39331 7.89316C5.16066 7.33227 5.04112 6.73094 5.04154 6.12371ZM15.254 11.243C16.2084 11.2427 17.1243 11.6198 17.802 12.2919C17.7308 11.7867 17.5387 11.3062 17.2419 10.8912C16.9451 10.4762 16.5525 10.139 16.0975 9.90838C15.6469 10.2226 15.1347 10.4376 14.5948 10.539C14.7756 10.763 14.9366 11.0015 15.0772 11.2524C15.1361 11.2489 15.1945 11.243 15.254 11.243ZM11.6245 14.8725C11.6245 13.3162 12.6109 11.9891 13.9899 11.4746C13.5473 10.8148 12.919 10.301 12.1845 9.99821C11.4361 10.4884 10.5609 10.7495 9.66621 10.7495C8.77156 10.7495 7.89636 10.4884 7.14796 9.99821C6.41324 10.2991 5.78465 10.8118 5.34214 11.471C4.89963 12.1302 4.66321 12.9061 4.66296 13.7V14.2717C4.66296 14.6981 4.96221 15.065 5.38046 15.1455C6.57512 15.3742 8.02179 15.5521 9.66562 15.5521C10.3365 15.5506 11.0071 15.5193 11.6752 15.4582C11.6429 15.2646 11.626 15.0688 11.6245 14.8725ZM15.2551 12.2925C13.8318 12.2925 12.6768 13.4475 12.6768 14.8708C12.6768 16.2941 13.8318 17.4491 15.2551 17.4491C16.6785 17.4491 17.8335 16.2941 17.8335 14.8708C17.8335 13.4475 16.6785 12.2925 15.2551 12.2925ZM16.1371 15.3975H15.779V15.7551C15.779 15.8944 15.7236 16.0279 15.6252 16.1264C15.5267 16.2248 15.3932 16.2801 15.254 16.2801C15.1147 16.2801 14.9812 16.2248 14.8827 16.1264C14.7843 16.0279 14.729 15.8944 14.729 15.7551V15.3975H14.3708C14.2316 15.3975 14.098 15.3422 13.9996 15.2438C13.9011 15.1453 13.8458 15.0118 13.8458 14.8725C13.8458 14.7333 13.9011 14.5998 13.9996 14.5013C14.098 14.4029 14.2316 14.3475 14.3708 14.3475H14.729V13.99C14.729 13.8507 14.7843 13.7172 14.8827 13.6187C14.9812 13.5203 15.1147 13.465 15.254 13.465C15.3932 13.465 15.5267 13.5203 15.6252 13.6187C15.7236 13.7172 15.779 13.8507 15.779 13.99V14.3475H16.1371C16.2764 14.3475 16.4099 14.4029 16.5084 14.5013C16.6068 14.5998 16.6621 14.7333 16.6621 14.8725C16.6621 15.0118 16.6068 15.1453 16.5084 15.2438C16.4099 15.3422 16.2764 15.3975 16.1371 15.3975Z" fill="#1141CB"/>
</svg>
